<?xml version="1.0" encoding="UTF-8"?>
<svg xmlns="http://www.w3.org/2000/svg" xmlns:xlink="http://www.w3.org/1999/xlink" width="48px" height="41px" viewBox="0 0 48 41" version="1.1">
<g id="surface1">
<path style=" stroke:none;fill-rule:nonzero;fill:rgb(0%,0%,0%);fill-opacity:1;" d="M 23.832031 40.96875 C 12.523438 40.96875 4.5 34.273438 4.5 25.042969 C 4.5 20.144531 7.941406 14.863281 8.085938 14.644531 C 8.386719 14.191406 8.972656 13.945312 9.582031 14 C 10.191406 14.066406 10.6875 14.441406 10.84375 14.945312 C 10.851562 14.976562 11.78125 17.9375 13.003906 19.582031 C 13.824219 20.691406 14.660156 21.472656 15.597656 22.015625 C 14.960938 19.667969 14.476562 16.132812 15.265625 12.507812 C 17.4375 2.554688 26.609375 0.171875 27.003906 0.078125 C 27.507812 -0.046875 28.046875 0.0664062 28.429688 0.363281 C 28.8125 0.664062 28.988281 1.113281 28.890625 1.550781 C 28.875 1.621094 27.359375 8.589844 30.574219 14.527344 C 30.867188 15.066406 31.273438 15.691406 31.710938 16.320312 C 31.835938 15.457031 32.03125 14.542969 32.328125 13.652344 C 33.503906 10.132812 36.554688 8.929688 36.683594 8.878906 C 37.191406 8.683594 37.785156 8.746094 38.222656 9.042969 C 38.660156 9.335938 38.871094 9.8125 38.769531 10.285156 C 38.753906 10.371094 38.328125 12.765625 40.71875 16.167969 C 42.875 19.238281 43.496094 21.226562 43.496094 25.042969 C 43.496094 34.273438 35.222656 40.96875 23.828125 40.96875 Z M 9.171875 18.726562 C 8.347656 20.5 7.5 22.859375 7.5 25.042969 C 7.5 32.789062 14.257812 38.40625 23.832031 38.40625 C 33.488281 38.40625 40.496094 32.789062 40.496094 25.042969 C 40.496094 21.695312 40.011719 20.144531 38.144531 17.484375 C 36.898438 15.707031 36.28125 14.109375 35.988281 12.839844 C 35.691406 13.25 35.414062 13.75 35.210938 14.355469 C 34.296875 17.085938 34.527344 20.28125 34.53125 20.3125 C 34.574219 20.882812 34.167969 21.414062 33.535156 21.605469 C 32.902344 21.796875 32.199219 21.605469 31.808594 21.136719 C 31.695312 21 29.027344 17.777344 27.851562 15.601562 C 25.410156 11.09375 25.453125 6.21875 25.703125 3.414062 C 23.230469 4.644531 19.4375 7.390625 18.21875 12.980469 C 17.03125 18.417969 19.339844 23.855469 19.363281 23.90625 C 19.5625 24.351562 19.457031 24.855469 19.089844 25.210938 C 18.722656 25.566406 18.15625 25.722656 17.613281 25.613281 C 17.425781 25.574219 13.203125 24.636719 10.46875 20.957031 C 9.984375 20.296875 9.542969 19.5 9.175781 18.722656 Z M 9.171875 18.726562 "/>
</g>
</svg>
