<?xml version="1.0" encoding="UTF-8"?>
<svg xmlns="http://www.w3.org/2000/svg" xmlns:xlink="http://www.w3.org/1999/xlink" width="48px" height="41px" viewBox="0 0 48 41" version="1.1">
<g id="surface1">
<path style="fill:none;stroke-width:2;stroke-linecap:round;stroke-linejoin:round;stroke:rgb(0%,0%,0%);stroke-opacity:1;stroke-miterlimit:4;" d="M 12 21.999238 C 17.523438 21.999238 22 17.522104 22 12 C 22 6.477896 17.523438 2.000762 12 2.000762 C 6.476562 2.000762 2 6.477896 2 12 C 2 17.522104 6.476562 21.999238 12 21.999238 Z M 12 21.999238 " transform="matrix(2,0,0,1.708333,0,0)"/>
<path style="fill:none;stroke-width:2;stroke-linecap:round;stroke-linejoin:round;stroke:rgb(0%,0%,0%);stroke-opacity:1;stroke-miterlimit:4;" d="M 10 11.000762 L 14 11.000762 C 15.105469 11.000762 16 10.104421 16 9 C 16 7.895579 15.105469 6.999238 14 6.999238 L 10 6.999238 Z M 10 11.000762 L 10 14.000762 M 10 11.000762 L 8 11.000762 M 10 17.000762 L 10 14.000762 M 10 14.000762 L 8 14.000762 M 10 14.000762 L 13 14.000762 " transform="matrix(2,0,0,1.708333,0,0)"/>
</g>
</svg>
